<?xml version="1.0" standalone="no"?>
<!DOCTYPE svg PUBLIC "-//W3C//DTD SVG 20010904//EN"
 "http://www.w3.org/TR/2001/REC-SVG-20010904/DTD/svg10.dtd">
<svg version="1.0" xmlns="http://www.w3.org/2000/svg"
 width="7680.000000pt" height="7680.000000pt" viewBox="0 0 7680.000000 7680.000000"
 preserveAspectRatio="xMidYMid meet">

<g transform="translate(0.000000,7680.000000) scale(0.100000,-0.100000)"
fill="#000000" stroke="none">
<path d="M31462 47313 c-81 -160 -151 -316 -216 -475 -19 -48 -49 -108 -66
-133 -58 -85 -140 -271 -205 -466 -42 -129 -69 -195 -79 -197 -24 -5 -28 36
-11 123 17 93 20 179 5 170 -31 -19 -121 -241 -220 -540 -82 -249 -143 -369
-231 -456 -76 -75 -137 -155 -209 -274 -51 -85 -100 -200 -100 -235 0 -11 -52
-114 -115 -230 -63 -115 -162 -305 -221 -422 -105 -210 -106 -213 -120 -322
-19 -139 -49 -281 -79 -365 -233 -658 -343 -902 -471 -1043 -83 -91 -156 -192
-199 -278 -28 -55 -97 -232 -243 -622 -75 -200 -78 -206 -107 -211 -16 -3 -31
-3 -33 -2 -2 2 4 18 14 36 15 29 15 41 5 99 -7 36 -25 95 -40 131 -27 63 -28
71 -23 195 5 145 -11 232 -53 294 -44 65 -72 207 -100 498 -12 129 -13 175 -4
228 19 109 -19 246 -105 376 l-42 65 -17 190 c-31 351 -67 571 -98 609 -9 11
-16 11 -40 -1 -15 -8 -30 -15 -33 -15 -17 0 -89 198 -101 280 -7 48 -39 97
-78 120 -26 16 -36 30 -46 71 -18 70 -55 159 -90 216 -22 37 -31 70 -40 143
-18 139 -67 379 -91 444 -19 50 -25 56 -49 56 -27 0 -28 -2 -34 -67 -4 -38
-19 -156 -34 -265 l-27 -196 20 -101 20 -101 -28 0 c-20 0 -31 8 -42 28 -14
27 -38 132 -51 225 -6 45 -8 48 -33 45 -21 -2 -28 -10 -33 -33 -12 -54 -9
-139 7 -251 10 -70 13 -135 9 -181 -8 -83 -5 -81 -98 -59 -56 13 -59 13 -73
-8 -59 -91 -51 -498 16 -783 18 -74 18 -99 10 -270 -9 -166 -7 -210 11 -377
20 -179 20 -193 5 -291 -9 -57 -16 -120 -16 -141 0 -20 22 -155 50 -298 39
-203 69 -325 136 -546 47 -157 103 -350 124 -430 21 -80 55 -188 75 -240 71
-182 77 -222 70 -426 -7 -191 -2 -224 34 -224 24 0 39 19 47 58 8 39 21 41 30
6 4 -15 42 -99 84 -188 104 -216 171 -373 177 -416 3 -21 -9 -96 -31 -189 -20
-85 -36 -158 -36 -162 0 -5 10 -9 22 -9 33 0 91 69 113 133 23 68 41 73 72 18
19 -33 66 -73 166 -143 16 -11 17 -17 7 -40 -16 -34 -6 -73 25 -104 51 -51
155 -17 155 52 0 26 1 26 48 18 128 -23 174 -7 330 119 154 124 218 220 247
372 9 43 27 99 41 125 33 60 135 162 194 193 78 41 107 104 137 297 12 78 24
116 44 149 16 24 33 68 39 98 7 30 23 71 36 90 22 33 54 120 54 148 0 8 42 14
130 19 l130 6 38 38 c41 41 118 72 235 93 66 12 67 12 197 -31 l131 -44 -7
-31 c-4 -16 -27 -88 -51 -159 l-45 -130 21 -60 c12 -34 21 -72 21 -85 0 -13
-18 -65 -39 -115 -23 -52 -42 -117 -46 -151 -14 -123 -66 -251 -148 -362 -26
-34 -66 -111 -92 -175 -26 -62 -52 -122 -60 -134 -13 -21 -10 -70 6 -80 14 -8
53 39 89 108 19 35 66 104 106 153 94 118 181 253 251 393 42 82 62 112 76
112 17 0 18 -6 12 -68 -6 -53 -4 -70 7 -80 12 -9 23 -4 57 31 51 50 66 77 76
137 16 100 84 197 204 293 75 59 76 61 104 146 34 103 109 245 142 267 43 28
127 55 190 61 72 7 130 -15 148 -54 12 -27 7 -27 252 7 72 11 149 16 173 13
l43 -6 -5 -36 c-31 -192 -60 -650 -43 -667 4 -4 18 3 31 15 14 13 29 20 34 17
30 -18 31 -301 2 -462 l-21 -121 38 -84 c42 -94 44 -115 28 -331 -5 -81 -4
-134 4 -176 10 -53 9 -71 -8 -139 -44 -174 -83 -405 -97 -565 -6 -74 -5 -78
14 -78 15 0 22 11 31 48 19 78 91 291 128 377 22 53 41 121 54 200 30 184 73
325 98 325 5 0 12 -26 16 -57 11 -93 38 -119 70 -69 24 36 34 81 46 191 17
171 50 264 129 370 36 49 38 55 90 340 68 372 69 395 34 510 -30 95 -40 190
-29 261 6 43 8 44 58 59 47 13 201 45 219 45 9 0 4 -32 -23 -148 l-19 -84 32
-71 31 -72 -41 -272 c-23 -150 -59 -361 -78 -470 -20 -109 -37 -220 -38 -248
-1 -45 1 -50 22 -53 17 -3 22 2 22 18 0 35 85 278 191 546 99 251 101 254 130
254 28 0 29 -1 29 -50 0 -62 17 -72 63 -37 27 21 39 44 71 141 44 135 68 174
117 198 75 35 130 133 205 363 l46 139 -21 43 c-26 54 -26 53 5 53 24 0 26 3
20 31 -3 17 -6 38 -6 45 0 9 -11 14 -30 14 -29 0 -30 1 -30 50 0 118 43 227
111 281 52 41 120 144 158 241 31 76 81 240 81 264 0 52 57 -30 147 -211 40
-81 62 -137 66 -172 9 -75 48 -180 99 -265 26 -43 66 -136 97 -228 86 -247
109 -295 197 -405 165 -208 284 -391 284 -438 0 -13 -25 -65 -56 -116 -61
-102 -66 -134 -22 -139 20 -2 38 7 73 39 l45 42 0 -30 c0 -28 -29 -121 -65
-211 -14 -33 -21 -41 -34 -36 -9 4 -34 8 -56 8 -40 1 -40 1 -43 -41 -3 -35 1
-44 21 -58 24 -15 24 -18 12 -58 -14 -50 -10 -67 16 -67 52 0 102 46 147 135
16 33 42 72 57 88 49 48 105 28 105 -38 0 -38 -12 -36 125 -16 50 8 73 6 134
-12 83 -24 68 -28 192 61 41 29 81 68 91 85 9 18 28 43 42 57 22 20 30 22 46
13 10 -7 34 -10 55 -6 l36 6 -6 49 -7 48 76 78 c74 76 76 80 76 128 1 43 6 55
40 92 22 24 44 41 49 37 6 -3 23 -26 37 -51 20 -34 31 -43 45 -39 11 3 28 8
39 11 11 3 20 3 20 0 0 -4 -23 -67 -50 -143 -32 -85 -48 -144 -44 -156 4 -11
20 -33 37 -48 l30 -27 -18 -53 c-23 -73 -71 -141 -157 -226 -59 -58 -102 -87
-223 -153 -407 -222 -407 -223 -568 -378 -154 -149 -259 -226 -354 -262 -33
-12 -87 -47 -132 -84 -194 -161 -505 -353 -665 -410 -125 -45 -295 -118 -391
-169 -67 -35 -80 -46 -80 -67 0 -14 5 -25 10 -25 6 1 61 17 123 37 61 20 160
47 220 59 93 19 131 34 292 114 102 50 201 98 220 105 19 8 89 45 155 83 194
110 315 164 315 139 0 -21 -95 -114 -141 -138 -33 -16 -49 -31 -49 -43 0 -36
32 -33 120 11 47 24 222 114 390 200 l305 156 147 31 c82 18 167 38 189 46 23
8 44 15 46 15 3 0 1 -30 -3 -67 -5 -51 -29 -124 -94 -288 -137 -344 -151 -398
-98 -388 18 3 29 18 46 63 28 70 134 257 239 419 83 129 113 152 113 87 0 -47
9 -66 30 -66 24 0 61 45 115 139 41 71 48 78 89 89 88 23 166 120 233 289 38
96 38 97 106 141 37 24 100 58 140 76 75 35 153 107 228 211 22 30 70 72 134
116 122 83 286 213 450 355 109 94 137 113 256 169 276 131 364 184 493 294
66 57 160 137 209 178 l88 73 87 -46 87 -47 181 6 182 5 39 39 c42 42 118 72
236 94 66 12 67 12 197 -31 l131 -44 -7 -31 c-4 -16 -27 -88 -51 -159 l-45
-130 21 -60 c12 -34 21 -72 21 -85 0 -13 -18 -65 -39 -115 -23 -52 -42 -117
-46 -151 -14 -123 -66 -251 -148 -362 -26 -34 -66 -111 -92 -175 -26 -62 -52
-122 -60 -134 -13 -21 -10 -70 6 -80 14 -8 53 39 89 108 19 35 66 104 106 153
94 118 181 253 251 393 42 82 62 112 76 112 17 0 18 -6 12 -68 -6 -53 -4 -70
7 -80 12 -9 23 -4 57 31 51 50 66 77 76 137 16 100 84 197 204 293 75 59 76
61 104 146 34 103 109 245 142 267 43 28 127 55 190 61 72 7 130 -15 148 -54
12 -27 7 -27 252 7 72 11 149 16 173 13 l43 -6 -5 -36 c-31 -192 -60 -650 -43
-667 4 -4 18 3 31 15 14 13 29 20 34 17 30 -18 31 -301 2 -462 l-21 -121 38
-84 c42 -94 44 -115 28 -331 -5 -81 -4 -134 4 -176 10 -53 9 -71 -8 -139 -44
-174 -83 -405 -97 -565 -6 -74 -5 -78 14 -78 15 0 22 11 31 48 19 78 91 291
128 377 22 53 41 121 54 200 30 184 73 325 98 325 5 0 12 -26 16 -57 11 -93
38 -119 70 -69 24 36 34 81 46 191 17 171 50 264 129 370 36 49 38 55 90 340
68 372 69 395 34 510 -25 84 -42 175 -31 175 2 0 57 -25 121 -55 106 -51 115
-58 106 -76 -6 -11 -30 -24 -55 -31 -25 -7 -45 -16 -45 -20 0 -28 34 -81 68
-105 l39 -29 -13 -38 c-8 -21 -17 -83 -22 -139 -7 -81 -16 -121 -45 -193 -39
-96 -46 -134 -24 -134 19 0 77 38 83 55 4 8 10 15 15 15 4 0 -1 -20 -12 -45
-25 -56 -22 -89 7 -93 17 -2 31 13 69 74 l48 76 39 -5 c48 -6 134 -58 131 -78
-1 -8 -10 -35 -19 -60 -15 -40 -16 -52 -6 -88 13 -43 50 -71 92 -71 33 0 77
50 85 97 l6 41 67 -31 c57 -27 79 -31 147 -32 107 0 144 9 207 51 49 33 57 36
104 30 35 -4 66 -1 95 9 24 9 81 22 127 30 55 10 94 23 115 39 71 53 183 73
482 85 250 11 299 23 362 86 42 41 46 43 123 49 63 6 80 5 80 -6 0 -7 -16 -51
-35 -98 -36 -89 -43 -130 -22 -130 19 0 77 38 83 55 4 8 10 15 15 15 4 0 -1
-20 -12 -45 -25 -56 -22 -89 7 -93 17 -2 31 13 69 74 l48 76 39 -5 c48 -6 134
-58 131 -78 -1 -8 -10 -35 -19 -60 -15 -40 -16 -52 -6 -88 13 -43 50 -71 92
-71 33 0 77 50 85 97 l6 41 67 -31 c57 -27 79 -31 147 -32 107 0 144 9 207 51
49 33 57 36 104 30 35 -4 66 -1 95 9 24 9 81 22 127 30 55 10 94 23 115 39 71
53 183 73 482 85 252 11 299 22 364 87 l43 44 197 10 c628 31 631 32 631 55 0
11 -7 31 -16 44 -14 19 -14 25 -3 32 30 19 229 59 291 59 l66 0 42 50 42 50
78 0 c60 0 83 4 95 17 16 15 27 14 179 -15 339 -68 516 -80 516 -36 0 19 -44
39 -120 54 -88 16 -427 129 -520 172 -73 34 -109 61 -93 71 4 2 25 10 45 16
45 15 62 34 53 61 -11 36 -56 50 -162 50 -122 0 -168 12 -185 48 -28 58 -147
96 -339 108 -148 9 -190 2 -209 -39 -25 -53 -92 -80 -214 -85 l-101 -4 -110
48 -110 49 -205 -1 c-188 0 -213 -2 -302 -26 -53 -15 -137 -43 -186 -63 -83
-33 -94 -35 -132 -25 -29 8 -47 20 -58 41 -17 29 -19 30 -85 27 -37 -2 -67 0
-67 3 0 3 12 62 26 130 26 128 27 210 3 317 -8 36 -3 66 30 200 43 171 95 416
106 500 6 47 4 56 -20 88 -24 32 -26 41 -21 88 4 29 18 76 31 105 14 29 32 96
40 149 18 110 47 228 74 305 11 29 22 95 26 147 8 105 25 170 51 185 75 46
109 74 136 113 28 41 32 56 39 149 11 138 40 247 99 371 52 108 135 242 151
242 15 0 127 240 151 325 21 72 23 101 23 300 0 300 -25 451 -127 753 l-51
152 -32 0 c-25 0 -34 -5 -39 -22 -11 -41 -6 -149 9 -207 10 -39 12 -75 7 -119
l-7 -63 -57 40 c-31 23 -61 41 -66 41 -10 0 -16 -19 -28 -95 -3 -22 -8 -47
-10 -57 -6 -20 -54 -38 -101 -38 -69 0 -306 -193 -320 -260 -4 -24 -11 -30
-32 -30 -29 0 -97 -29 -139 -58 -15 -11 -39 -22 -54 -26 -40 -9 -88 -63 -121
-135 -22 -50 -31 -89 -38 -170 -13 -144 -26 -205 -49 -226 -13 -12 -20 -31
-20 -54 0 -56 -28 -158 -61 -229 -29 -60 -31 -69 -24 -137 6 -71 5 -77 -68
-301 -41 -126 -78 -245 -82 -264 -4 -19 -32 -96 -62 -170 -76 -182 -133 -354
-140 -417 -5 -47 -3 -57 22 -88 31 -42 32 -32 -24 -215 -23 -74 -48 -171 -57
-215 -9 -44 -34 -142 -55 -218 -53 -186 -96 -368 -105 -444 -7 -71 2 -79 53
-46 l26 17 -5 -70 c-6 -85 -36 -156 -88 -209 -28 -28 -47 -62 -63 -110 -30
-90 -40 -91 -183 -28 l-109 48 -205 -1 c-188 0 -213 -2 -302 -26 -53 -15 -137
-43 -186 -63 -83 -33 -94 -35 -132 -25 -29 8 -47 20 -58 41 -17 29 -19 30 -85
27 -37 -2 -67 0 -67 3 0 3 12 62 26 130 26 128 27 210 3 317 -8 36 -3 66 30
200 43 171 95 416 106 500 6 47 4 56 -20 88 -24 32 -26 41 -21 88 4 29 18 76
31 105 14 29 32 96 40 149 18 110 47 228 74 305 11 29 22 95 26 147 8 105 25
170 51 185 75 46 109 74 136 113 28 41 32 56 39 149 11 138 40 247 99 371 52
108 135 242 151 242 15 0 127 240 151 325 21 72 23 101 23 300 0 300 -25 451
-127 753 l-51 152 -32 0 c-25 0 -34 -5 -39 -22 -11 -41 -6 -149 9 -207 10 -39
12 -75 7 -119 l-7 -63 -57 40 c-31 23 -61 41 -66 41 -10 0 -16 -19 -28 -95 -3
-22 -8 -47 -10 -57 -6 -20 -54 -38 -101 -38 -69 0 -306 -193 -320 -260 -4 -24
-11 -30 -32 -30 -29 0 -97 -29 -139 -58 -15 -11 -39 -22 -54 -26 -40 -9 -88
-63 -121 -135 -22 -50 -31 -89 -38 -170 -13 -144 -26 -205 -49 -226 -13 -12
-20 -31 -20 -54 0 -56 -28 -158 -61 -229 -29 -60 -31 -69 -24 -137 6 -71 5
-77 -68 -301 -41 -126 -78 -245 -82 -264 -4 -19 -32 -96 -62 -170 -76 -182
-133 -354 -140 -417 -5 -47 -3 -57 22 -88 31 -42 32 -32 -24 -215 -23 -74 -48
-171 -57 -215 -9 -44 -34 -142 -55 -218 -53 -186 -96 -368 -105 -444 -7 -70 2
-79 51 -47 25 16 25 16 25 -15 0 -28 -2 -30 -22 -21 -13 5 -40 11 -60 15 l-38
6 0 58 c0 85 -33 125 -157 186 -40 20 -73 39 -73 43 0 51 36 366 52 462 12 69
21 148 20 175 0 28 -1 149 -1 271 0 176 -5 248 -22 355 -32 203 -30 225 25
302 96 135 103 185 59 411 -27 137 -27 139 -14 305 17 217 32 308 71 411 90
241 100 470 40 890 -19 133 -19 136 -1 220 19 83 19 86 1 105 -27 29 -40 70
-40 125 0 42 3 49 24 54 14 3 28 15 31 27 8 24 -19 69 -40 69 -8 0 -15 8 -15
18 0 9 -5 84 -10 165 -10 160 -23 227 -43 227 -32 0 -45 -27 -57 -115 -21
-165 -59 -319 -76 -303 -3 3 -12 34 -20 67 -8 34 -21 75 -29 91 -13 24 -19 28
-38 21 -19 -7 -23 -18 -29 -84 -7 -78 -35 -150 -62 -160 -8 -3 -42 -1 -75 5
-50 10 -63 9 -84 -5 -34 -22 -99 -152 -145 -293 -29 -87 -55 -144 -96 -206
-63 -96 -93 -161 -102 -219 -6 -34 -13 -43 -48 -61 -45 -22 -106 -76 -106 -93
0 -6 -33 -34 -73 -63 -40 -28 -95 -75 -124 -104 -49 -51 -52 -56 -73 -158 -29
-139 -70 -258 -112 -328 -19 -31 -43 -86 -53 -122 -19 -72 -48 -135 -75 -165
-12 -12 -25 -56 -35 -115 -31 -184 -54 -251 -177 -515 -142 -306 -262 -576
-325 -730 l-45 -110 12 -72 c16 -92 11 -115 -56 -253 -31 -63 -72 -160 -91
-215 -65 -185 -95 -220 -204 -235 -94 -13 -533 -58 -537 -55 -1 1 82 107 184
236 171 214 193 245 250 364 76 159 114 267 148 416 25 114 46 287 46 386 0
39 6 61 24 88 34 49 49 132 41 218 -32 344 -237 695 -665 1140 -117 122 -151
150 -289 241 -158 105 -294 213 -322 257 -10 14 -18 57 -21 105 -4 53 -13 93
-27 119 -16 31 -46 144 -77 293 -3 15 -12 22 -29 22 -33 0 -40 -38 -40 -220 0
-109 -3 -147 -13 -153 -8 -5 -14 -7 -15 -5 -40 78 -59 103 -76 106 -24 4 -41
-30 -41 -79 0 -16 -3 -29 -7 -29 -5 0 -66 18 -138 40 -178 56 -371 105 -485
124 -226 38 -532 45 -925 21 -132 -8 -243 -15 -247 -15 -16 0 -7 134 18 270
24 133 26 152 17 284 -7 107 -6 158 4 211 14 75 93 549 116 703 15 98 6 181
-20 189 -18 6 -50 -65 -63 -138 -6 -35 -51 -221 -99 -414 -49 -192 -94 -390
-101 -440 -18 -145 -47 -281 -67 -317 l-18 -33 -6 90 c-7 112 -16 147 -37 143
-33 -6 -51 -65 -86 -278 -20 -118 -38 -227 -41 -241 -6 -25 -9 -26 -123 -38
-69 -7 -159 -9 -219 -5 -120 8 -126 2 -63 -57 47 -45 44 -44 223 -57 76 -6
141 -13 144 -16 3 -2 1 -17 -4 -33 -9 -25 -14 -27 -46 -25 -23 2 -37 -1 -37
-8 0 -6 -5 -8 -11 -5 -6 4 -26 4 -45 1 -24 -5 -34 -12 -34 -26 0 -42 10 -50
66 -50 30 0 54 -3 54 -6 0 -3 -21 -49 -46 -102 -59 -124 -99 -254 -114 -366
-6 -49 -50 -246 -98 -436 l-88 -347 15 -144 c16 -163 13 -197 -45 -486 -60
-301 -132 -514 -203 -603 -83 -103 -159 -350 -267 -865 -14 -66 -29 -123 -33
-127 -4 -5 -24 61 -45 145 -21 83 -64 231 -96 328 -47 145 -59 193 -65 275
-20 284 -110 625 -272 1029 -37 92 -93 209 -132 275 -38 63 -80 139 -95 168
l-26 52 26 103 c19 75 25 118 21 162 -5 63 14 227 38 332 18 76 89 298 117
362 24 57 18 131 -11 131 -13 0 -32 -28 -67 -97 -34 -70 -64 -113 -107 -156
-32 -32 -61 -56 -64 -54 -2 3 -10 27 -17 54 -11 44 -15 48 -44 51 -27 3 -34
-1 -42 -22 -14 -39 -27 -31 -34 20 -11 82 -7 149 13 207 11 31 17 66 14 79
-21 85 -136 93 -179 12 -18 -32 -18 -34 4 -72 20 -37 21 -44 11 -123 -17 -127
-17 -129 -40 -129 -23 0 -79 51 -79 72 0 11 -9 13 -31 10 l-32 -5 6 -82 6 -81
-213 -213 c-117 -117 -224 -218 -237 -224 -40 -20 -60 -78 -71 -200 -8 -97
-18 -139 -75 -311 l-66 -198 9 -90 9 -91 -148 -493 -148 -494 27 -68 c22 -56
25 -73 17 -102 -59 -209 -114 -417 -124 -470 -6 -36 -13 -66 -14 -67 -4 -6
-145 68 -145 76 0 50 36 365 52 461 12 69 21 148 20 175 0 28 -1 149 -1 271 0
176 -5 248 -22 355 -32 203 -30 225 25 302 96 135 103 185 59 411 -27 137 -27
139 -14 305 17 217 32 308 71 411 90 241 100 470 40 890 -19 133 -19 136 -1
220 19 83 19 86 1 105 -27 29 -40 70 -40 125 0 42 3 49 24 54 14 3 28 15 31
27 8 24 -19 69 -40 69 -8 0 -15 8 -15 18 0 9 -5 84 -10 165 -10 160 -23 227
-43 227 -32 0 -45 -27 -57 -115 -21 -165 -59 -319 -76 -303 -3 3 -12 34 -20
67 -8 34 -21 75 -29 91 -13 24 -19 28 -38 21 -19 -7 -23 -18 -29 -84 -7 -78
-35 -150 -62 -160 -8 -3 -42 -1 -75 5 -50 10 -63 9 -84 -5 -34 -22 -99 -152
-145 -293 -29 -87 -55 -144 -96 -206 -63 -96 -93 -161 -102 -219 -6 -34 -13
-43 -48 -61 -45 -22 -106 -76 -106 -93 0 -6 -33 -34 -73 -63 -40 -28 -95 -75
-124 -104 -49 -51 -52 -56 -73 -158 -29 -139 -70 -258 -112 -328 -19 -31 -43
-86 -53 -122 -19 -72 -48 -135 -75 -165 -12 -12 -25 -56 -35 -115 -31 -184
-54 -251 -177 -515 -142 -306 -262 -576 -325 -730 l-45 -110 12 -72 c16 -92
11 -115 -56 -253 -31 -63 -72 -160 -91 -215 -64 -182 -96 -220 -199 -234 -76
-11 -557 -61 -585 -61 -14 0 -7 18 35 95 75 136 82 160 67 243 -16 84 -16 83
101 270 51 81 101 170 113 197 11 28 49 96 85 150 78 120 140 241 140 272 0
13 -1 23 -3 23 -1 0 -17 -4 -36 -10 l-33 -9 5 37 c11 67 48 165 101 274 l54
106 -21 60 -21 59 37 74 c20 41 41 94 46 119 6 25 20 70 32 100 11 30 34 102
49 160 15 58 53 176 84 262 56 158 78 258 58 258 -37 0 -110 -107 -162 -239
-15 -38 -41 -75 -86 -119 -35 -36 -67 -62 -70 -59 -19 19 188 562 321 842 76
159 105 294 120 545 6 92 15 138 45 235 85 269 132 464 146 601 6 52 22 98 75
213 136 297 366 914 354 952 -4 11 -16 19 -30 19 -19 0 -34 -22 -103 -157z
m4835 -1450 c-3 -10 -5 -4 -5 12 0 17 2 24 5 18 2 -7 2 -21 0 -30z m599 -1098
c237 -58 340 -89 444 -131 74 -30 141 -59 149 -63 12 -8 10 -24 -13 -105 -15
-52 -31 -121 -36 -153 -12 -73 -54 -159 -121 -247 l-52 -69 6 -84 c5 -73 3
-93 -20 -161 -38 -114 -70 -169 -103 -175 -62 -13 -185 -174 -303 -397 -51
-98 -58 -117 -91 -285 -19 -99 -43 -207 -53 -240 -18 -56 -23 -63 -87 -105
-77 -51 -95 -77 -96 -138 -1 -177 -97 -372 -238 -485 l-59 -48 -41 -132 c-37
-117 -79 -266 -112 -396 -6 -23 -13 -41 -16 -39 -2 3 14 85 37 184 l40 179
-17 85 c-9 47 -16 105 -16 130 0 70 199 939 287 1255 78 279 136 548 190 877
23 143 24 154 8 165 -14 11 -20 7 -40 -27 -13 -22 -27 -40 -30 -40 -3 0 -3 51
0 113 9 159 59 607 67 607 4 0 147 -34 316 -75z m-3886 -142 c0 -5 -5 -15 -10
-23 -8 -12 -10 -11 -10 8 0 12 5 22 10 22 6 0 10 -3 10 -7z m9280 0 c0 -5 -5
-15 -10 -23 -8 -12 -10 -11 -10 8 0 12 5 22 10 22 6 0 10 -3 10 -7z m1806
-450 c-11 -11 -17 4 -9 23 7 18 8 18 11 1 2 -10 1 -21 -2 -24z m2390 0 c-11
-11 -17 4 -9 23 7 18 8 18 11 1 2 -10 1 -21 -2 -24z m-7853 -105 c17 -21 69
-69 116 -107 165 -132 290 -279 365 -428 56 -112 68 -164 73 -324 6 -174 -11
-260 -80 -404 -40 -81 -63 -110 -238 -300 -222 -241 -582 -604 -650 -655 -39
-29 -53 -49 -79 -114 -27 -65 -44 -90 -94 -136 -34 -31 -116 -109 -184 -172
-103 -97 -130 -116 -171 -127 -59 -15 -90 -43 -72 -65 10 -12 -8 -31 -112
-114 -127 -101 -319 -242 -331 -242 -3 0 -6 82 -6 183 l0 183 102 200 c99 194
102 201 100 260 -2 56 0 66 31 105 18 24 44 73 57 109 38 106 104 243 149 308
22 33 41 72 41 85 0 37 44 183 105 347 30 83 55 169 58 201 11 120 54 196 132
229 48 21 76 55 98 120 19 57 43 175 52 258 6 53 23 94 105 255 73 143 111
206 150 247 62 67 108 130 122 170 l10 30 60 -32 c33 -18 74 -49 91 -70z
m-230 32 c-3 -11 -9 -20 -13 -20 -5 0 -6 9 -3 20 3 11 9 20 13 20 5 0 6 -9 3
-20z m-1863 -60 c0 -11 -4 -20 -9 -20 -5 0 -7 9 -4 20 3 11 7 20 9 20 2 0 4
-9 4 -20z m-5990 -74 c0 -3 -4 -8 -10 -11 -5 -3 -10 -1 -10 4 0 6 5 11 10 11
6 0 10 -2 10 -4z m1489 -933 c-4 -144 -13 -263 -27 -350 -32 -205 -44 -363
-40 -550 l3 -171 -75 -7 c-135 -11 -234 -26 -323 -47 -48 -12 -90 -18 -93 -15
-4 3 14 39 39 79 25 40 73 138 107 218 65 153 118 254 155 298 24 29 76 184
175 527 70 244 67 235 77 235 4 0 5 -98 2 -217z m9280 0 c-4 -144 -13 -263
-27 -350 -32 -205 -44 -363 -40 -550 l3 -171 -75 -7 c-135 -11 -234 -26 -323
-47 -48 -12 -90 -18 -93 -15 -4 3 14 39 39 79 25 40 73 138 107 218 65 153
118 254 155 298 24 29 76 184 175 527 70 244 67 235 77 235 4 0 5 -98 2 -217z
m-6389 -378 c0 -17 -2 -17 -10 -5 -5 8 -10 24 -10 35 0 17 2 17 10 5 5 -8 10
-24 10 -35z m-6428 -1460 c-22 -20 -47 -51 -53 -70 -7 -19 -18 -35 -25 -35
-18 0 -1 72 25 109 18 25 29 31 58 31 l37 0 -42 -35z m13759 -136 c-11 -28
-27 -62 -36 -76 -17 -25 -20 -25 -89 -20 -69 5 -202 40 -220 57 -11 11 68 34
224 64 69 13 128 25 132 25 5 1 -1 -22 -11 -50z m5899 -120 c0 -5 -4 -9 -10
-9 -5 0 -10 7 -10 16 0 8 5 12 10 9 6 -3 10 -10 10 -16z m-17533 -661 c-3 -8
-6 -5 -6 6 -1 11 2 17 5 13 3 -3 4 -12 1 -19z m9280 0 c-3 -8 -6 -5 -6 6 -1
11 2 17 5 13 3 -3 4 -12 1 -19z m-5107 -1468 c0 -5 -2 -10 -4 -10 -3 0 -8 5
-11 10 -3 6 -1 10 4 10 6 0 11 -4 11 -10z"/>
<path d="M32813 46593 c-14 -5 -17 -43 -7 -80 8 -30 44 -30 72 0 28 29 28 41
0 67 -21 20 -40 24 -65 13z"/>
<path d="M42093 46593 c-14 -5 -17 -43 -7 -80 8 -30 44 -30 72 0 28 29 28 41
0 67 -21 20 -40 24 -65 13z"/>
<path d="M32479 46359 c-59 -22 -68 -94 -18 -145 28 -29 40 -34 80 -34 40 0
48 3 53 23 12 45 6 114 -11 136 -21 25 -68 34 -104 20z"/>
<path d="M41759 46359 c-59 -22 -68 -94 -18 -145 28 -29 40 -34 80 -34 40 0
48 3 53 23 12 45 6 114 -11 136 -21 25 -68 34 -104 20z"/>
<path d="M43865 45940 c-4 -6 -4 -31 0 -56 6 -42 8 -44 39 -44 43 0 58 19 54
67 -3 37 -4 38 -45 41 -23 2 -44 -2 -48 -8z"/>
<path d="M46255 45940 c-4 -6 -4 -31 0 -56 6 -42 8 -44 39 -44 43 0 58 19 54
67 -3 37 -4 38 -45 41 -23 2 -44 -2 -48 -8z"/>
<path d="M38400 45845 c-12 -15 -17 -72 -7 -81 2 -3 23 -2 47 2 l42 7 -7 36
c-4 20 -9 39 -11 43 -9 14 -51 9 -64 -7z"/>
<path d="M43588 45578 c-35 -18 -38 -24 -38 -63 0 -36 6 -50 34 -79 28 -30 40
-36 75 -36 54 0 81 26 81 79 0 110 -60 149 -152 99z"/>
<path d="M45978 45578 c-35 -18 -38 -24 -38 -63 0 -36 6 -50 34 -79 28 -30 40
-36 75 -36 54 0 81 26 81 79 0 110 -60 149 -152 99z"/>
<path d="M38112 45562 c-45 -43 -43 -74 10 -123 48 -44 78 -49 109 -18 18 18
20 28 14 72 -8 59 -27 84 -71 93 -24 5 -36 0 -62 -24z"/>
<path d="M27353 45458 c-5 -13 -7 -34 -3 -48 5 -21 13 -25 48 -28 37 -3 42 -1
48 23 10 41 -13 75 -51 75 -23 0 -34 -6 -42 -22z"/>
<path d="M34080 45407 c0 -8 -3 -35 -6 -60 l-7 -45 38 8 c55 12 70 31 59 72
-8 29 -14 33 -47 36 -27 2 -37 -1 -37 -11z"/>
<path d="M35490 45311 c0 -48 7 -53 53 -40 26 7 37 16 37 29 0 39 -11 50 -51
50 -39 0 -39 0 -39 -39z"/>
<path d="M34604 45276 c-3 -8 -4 -29 -2 -48 3 -32 5 -33 51 -36 l47 -3 0 35
c0 56 -8 66 -51 66 -25 0 -42 -5 -45 -14z"/>
<path d="M27029 45197 c-69 -31 -78 -78 -29 -145 27 -38 34 -42 73 -42 33 0
49 6 67 25 20 21 22 31 17 81 -3 32 -13 64 -23 75 -19 21 -65 24 -105 6z"/>
<path d="M33702 45124 c-19 -13 -22 -24 -22 -77 0 -59 2 -63 28 -74 15 -6 39
-19 53 -29 53 -34 117 18 103 84 -3 15 -10 46 -16 70 l-11 42 -56 0 c-35 0
-65 -6 -79 -16z"/>
<path d="M35712 45023 c-27 -90 -1 -139 66 -127 51 9 80 29 99 70 17 34 17 35
-9 60 -19 20 -39 27 -85 31 l-59 5 -12 -39z"/>
<path d="M27662 40185 c-10 -21 -9 -30 4 -50 20 -31 45 -32 78 -2 19 17 24 28
19 50 -5 24 -10 27 -48 27 -35 0 -44 -4 -53 -25z"/>
<path d="M41976 39862 c-34 -65 43 -109 87 -50 18 24 19 31 7 53 -20 37 -74
35 -94 -3z"/>
<path d="M44366 39862 c-34 -65 43 -109 87 -50 18 24 19 31 7 53 -20 37 -74
35 -94 -3z"/>
<path d="M35080 39814 c-23 -42 -30 -63 -25 -85 9 -42 49 -69 101 -69 80 0
104 69 60 175 -14 33 -18 35 -60 35 -43 0 -45 -1 -76 -56z"/>
<path d="M34682 39668 c-14 -14 -16 -57 -3 -77 6 -10 20 -11 51 -6 40 7 42 8
36 37 -3 17 -6 37 -6 44 0 18 -61 19 -78 2z"/>
<path d="M28116 39418 c-23 -73 -13 -98 40 -98 40 0 53 20 45 70 -6 32 -9 35
-44 38 -24 2 -39 -1 -41 -10z"/>
<path d="M27902 39265 c-17 -22 -19 -31 -10 -55 8 -25 15 -30 42 -30 47 0 72
30 60 72 -8 27 -15 34 -41 36 -23 2 -36 -3 -51 -23z"/>
</g>
</svg>
